<svg width="24" height="25" viewBox="0 0 24 25" fill="none" xmlns="http://www.w3.org/2000/svg">
  <path fill-rule="evenodd" clip-rule="evenodd"
    d="M17.7326 2.07688C15.9766 1.12055 14.0095 0.618819 12.0103 0.617341C10.2215 0.614396 8.45483 1.012 6.83957 1.78102C5.22431 2.55003 3.80142 3.67098 2.67518 5.06172C1.54894 6.45246 0.747881 8.07776 0.330692 9.81853C-0.0864983 11.5593 -0.109245 13.3714 0.26412 15.1221C0.637484 16.8728 1.3975 18.5177 2.48847 19.9364C3.57945 21.355 4.97375 22.5113 6.5692 23.3207C8.16465 24.1301 9.92083 24.572 11.7091 24.614C13.4973 24.656 15.2723 24.2971 16.9039 23.5636L20.1788 24.5011C20.6928 24.6481 21.2368 24.6548 21.7543 24.5206C22.2718 24.3864 22.744 24.1162 23.122 23.7378C23.5 23.3595 23.7701 22.8869 23.9042 22.369C24.0383 21.8511 24.0315 21.3068 23.8847 20.7923L22.9479 17.5148C23.7638 15.6883 24.1104 13.6865 23.9562 11.6917C23.802 9.69685 23.1519 7.77227 22.0649 6.09304C20.9779 4.41381 19.4887 3.03322 17.7326 2.07688ZM16.5854 20.3536C15.2021 21.1798 13.6213 21.6165 12.0103 21.6173C10.0262 21.62 8.09697 20.9659 6.52304 19.757C4.9491 18.548 3.81882 16.8521 3.30825 14.9334C2.79768 13.0146 2.93548 10.9808 3.70018 9.14854C4.46489 7.31633 5.81356 5.78863 7.53616 4.80339C9.25875 3.81816 11.2586 3.43069 13.2241 3.70135C15.1896 3.97201 17.0106 4.88559 18.4033 6.2998C19.796 7.71401 20.6823 9.54947 20.9241 11.5203C21.166 13.4911 20.7498 15.4866 19.7404 17.1961L21.0032 21.6173L16.5854 20.3536ZM12.0084 6.99186C11.2137 6.99186 10.4515 7.30766 9.88943 7.86984L7.2665 10.4948C6.70476 11.0574 6.38921 11.8202 6.38921 12.6155C6.38921 13.4108 6.70476 14.1735 7.2665 14.7361L9.88943 17.3611C10.4515 17.9233 11.2137 18.2391 12.0084 18.2391C12.8031 18.2391 13.5652 17.9233 14.1273 17.3611L16.7503 14.7361C17.312 14.1735 17.6276 13.4108 17.6276 12.6155C17.6276 11.8202 17.312 11.0574 16.7503 10.4948L14.1273 7.86984C13.5652 7.30766 12.8031 6.99186 12.0084 6.99186ZM14.6332 12.6173L12.0103 15.2423L9.38733 12.6173L12.0103 9.99234L14.6332 12.6173Z"
    fill="#D0D8FF" />
</svg>