<svg width="142" height="25" viewBox="0 0 142 25" fill="none" xmlns="http://www.w3.org/2000/svg">
<g clip-path="url(#clip0_310_2005)">
<path d="M9.88943 7.86984C10.4515 7.30765 11.2137 6.99185 12.0084 6.99185C12.8031 6.99185 13.5652 7.30765 14.1273 7.86984L16.7503 10.4948C17.312 11.0574 17.6276 11.8202 17.6276 12.6155C17.6276 13.4108 17.312 14.1735 16.7503 14.7361L14.1273 17.3611C13.5652 17.9233 12.8031 18.2391 12.0084 18.2391C11.2137 18.2391 10.4515 17.9233 9.88943 17.3611L7.2665 14.7361C6.70476 14.1735 6.38921 13.4108 6.38921 12.6155C6.38921 11.8202 6.70476 11.0574 7.2665 10.4948L9.88943 7.86984ZM12.0103 15.2423L14.6332 12.6173L12.0103 9.99234L9.38733 12.6173L12.0103 15.2423Z" fill="#D0D8FF"/>
<path d="M12.0103 0.617341C14.0095 0.618819 15.9766 1.12055 17.7326 2.07688C19.4887 3.03322 20.9779 4.41381 22.0649 6.09304C23.1519 7.77227 23.802 9.69685 23.9562 11.6917C24.1104 13.6865 23.7638 15.6883 22.9479 17.5148L23.8847 20.7923C24.0315 21.3068 24.0383 21.8511 23.9042 22.369C23.7701 22.8869 23.5 23.3595 23.122 23.7378C22.744 24.1162 22.2718 24.3864 21.7543 24.5206C21.2368 24.6548 20.6928 24.6481 20.1788 24.5011L16.9039 23.5636C15.2723 24.2971 13.4973 24.656 11.7091 24.614C9.92083 24.572 8.16465 24.1301 6.5692 23.3207C4.97375 22.5113 3.57945 21.355 2.48847 19.9364C1.3975 18.5177 0.637484 16.8728 0.26412 15.1221C-0.109245 13.3714 -0.0864983 11.5593 0.330692 9.81853C0.747881 8.07776 1.54894 6.45246 2.67518 5.06172C3.80142 3.67098 5.22431 2.55003 6.83957 1.78102C8.45483 1.012 10.2215 0.614396 12.0103 0.617341ZM12.0103 21.6173C13.6213 21.6165 15.2021 21.1798 16.5854 20.3536L21.0032 21.6173L19.7404 17.1961C20.7498 15.4866 21.166 13.4911 20.9241 11.5203C20.6823 9.54947 19.796 7.71401 18.4033 6.2998C17.0106 4.88559 15.1896 3.97201 13.2241 3.70135C11.2586 3.43069 9.25875 3.81816 7.53616 4.80339C5.81356 5.78863 4.46489 7.31633 3.70018 9.14854C2.93548 10.9808 2.79768 13.0146 3.30825 14.9334C3.81882 16.8521 4.9491 18.548 6.52304 19.757C8.09697 20.9659 10.0262 21.62 12.0103 21.6173Z" fill="#D0D8FF"/>
<path d="M41.92 7.44132H33.376V11.4493H40.12V14.1373H33.376V20.6173H30.064V4.77732H41.92V7.44132ZM50.1149 12.9613C50.1149 12.2733 49.9149 11.7373 49.5149 11.3533C49.1309 10.9693 48.6189 10.7773 47.9789 10.7773C47.3869 10.7773 46.8669 10.9293 46.4189 11.2333C45.9709 11.5373 45.6429 12.0413 45.4349 12.7453L42.6269 11.8813C42.8989 10.8253 43.4909 9.97732 44.4029 9.33732C45.3309 8.69732 46.5709 8.37732 48.1229 8.37732C49.1789 8.37732 50.0989 8.54532 50.8829 8.88132C51.6669 9.20132 52.2749 9.68932 52.7069 10.3453C53.1549 11.0013 53.3789 11.8253 53.3789 12.8173V17.6893C53.3789 18.2973 53.6669 18.6013 54.2429 18.6013C54.5149 18.6013 54.7709 18.5613 55.0109 18.4813L54.8189 20.5213C54.4029 20.7293 53.8829 20.8333 53.2589 20.8333C52.6989 20.8333 52.1949 20.7373 51.7469 20.5453C51.2989 20.3533 50.9469 20.0653 50.6909 19.6813C50.4349 19.2813 50.3069 18.7853 50.3069 18.1933V18.0973L50.8829 18.0013C50.7869 18.6093 50.5229 19.1293 50.0909 19.5613C49.6589 19.9773 49.1309 20.2973 48.5069 20.5213C47.8989 20.7453 47.2669 20.8573 46.6109 20.8573C45.7949 20.8573 45.0909 20.7373 44.4989 20.4973C43.9069 20.2413 43.4509 19.8733 43.1309 19.3933C42.8109 18.9133 42.6509 18.3213 42.6509 17.6173C42.6509 16.7213 42.9389 15.9933 43.5149 15.4333C44.0909 14.8573 44.9149 14.4653 45.9869 14.2573L50.4989 13.3453L50.4749 15.3853L47.5949 15.9613C47.0509 16.0733 46.6349 16.2253 46.3469 16.4173C46.0749 16.5933 45.9389 16.8893 45.9389 17.3053C45.9389 17.7053 46.0829 18.0093 46.3709 18.2173C46.6749 18.4253 47.0349 18.5293 47.4509 18.5293C47.7869 18.5293 48.1149 18.4893 48.4349 18.4093C48.7549 18.3293 49.0429 18.2013 49.2989 18.0253C49.5549 17.8493 49.7549 17.6093 49.8989 17.3053C50.0429 17.0013 50.1149 16.6333 50.1149 16.2013V12.9613ZM57.0561 20.6173V8.61732H60.0081L60.2001 12.2173L59.7921 11.8333C59.9841 11.0493 60.2881 10.4093 60.7041 9.91332C61.1201 9.40132 61.6241 9.01732 62.2161 8.76132C62.8241 8.50532 63.4881 8.37732 64.2081 8.37732C65.0401 8.37732 65.7761 8.53732 66.4161 8.85732C67.0721 9.17732 67.5841 9.66532 67.9521 10.3213C68.3361 10.9613 68.5281 11.7693 68.5281 12.7453V20.6173H65.2401V13.6813C65.2401 12.6573 65.0401 11.9533 64.6401 11.5693C64.2401 11.1693 63.7201 10.9693 63.0801 10.9693C62.6321 10.9693 62.1921 11.0813 61.7601 11.3053C61.3441 11.5133 61.0001 11.8573 60.7281 12.3373C60.4721 12.8173 60.3441 13.4573 60.3441 14.2573V20.6173H57.0561ZM76.7155 20.8573C75.4995 20.8573 74.3875 20.6413 73.3795 20.2093C72.3875 19.7773 71.5795 19.1693 70.9555 18.3853L72.8515 16.4653C73.2355 17.0413 73.7475 17.5133 74.3875 17.8813C75.0275 18.2493 75.7875 18.4333 76.6675 18.4333C77.2915 18.4333 77.7875 18.3453 78.1555 18.1693C78.5395 17.9773 78.7315 17.6813 78.7315 17.2813C78.7315 17.0253 78.6435 16.8093 78.4675 16.6333C78.2915 16.4413 77.9395 16.2893 77.4115 16.1773L75.2995 15.7453C73.9075 15.4573 72.9155 15.0253 72.3235 14.4493C71.7475 13.8573 71.4595 13.0973 71.4595 12.1693C71.4595 11.5133 71.6515 10.8973 72.0355 10.3213C72.4355 9.74532 73.0275 9.28132 73.8115 8.92932C74.5955 8.56132 75.5715 8.37732 76.7395 8.37732C77.9395 8.37732 78.9795 8.56932 79.8595 8.95332C80.7555 9.32132 81.4595 9.87332 81.9715 10.6093L80.0035 12.5293C79.6515 11.9693 79.1875 11.5453 78.6115 11.2573C78.0515 10.9533 77.4595 10.8013 76.8355 10.8013C76.3875 10.8013 76.0035 10.8493 75.6835 10.9453C75.3635 11.0413 75.1235 11.1773 74.9635 11.3533C74.8035 11.5133 74.7235 11.7213 74.7235 11.9773C74.7235 12.2333 74.8355 12.4573 75.0595 12.6493C75.2835 12.8253 75.6915 12.9773 76.2835 13.1053L78.7315 13.6093C79.9155 13.8493 80.7635 14.2573 81.2755 14.8333C81.7875 15.3933 82.0435 16.0733 82.0435 16.8733C82.0435 17.6413 81.8355 18.3293 81.4195 18.9373C81.0195 19.5293 80.4195 20.0013 79.6195 20.3533C78.8355 20.6893 77.8675 20.8573 76.7155 20.8573ZM96.7638 7.44132H88.2198V11.4493H94.9637V14.1373H88.2198V20.6173H84.9078V4.77732H96.7638V7.44132ZM102.81 20.8573C102.01 20.8573 101.29 20.7133 100.65 20.4253C100.01 20.1373 99.4983 19.6813 99.1143 19.0573C98.7463 18.4173 98.5623 17.5933 98.5623 16.5853V8.61732H101.85V15.7933C101.85 16.7213 102.042 17.3693 102.426 17.7373C102.81 18.0893 103.362 18.2653 104.082 18.2653C104.418 18.2653 104.746 18.2093 105.066 18.0973C105.386 17.9693 105.666 17.7773 105.906 17.5213C106.162 17.2653 106.362 16.9373 106.506 16.5373C106.65 16.1213 106.722 15.6333 106.722 15.0733V8.61732H110.01V20.6173H107.082L106.962 18.5293C106.562 19.3293 106.01 19.9213 105.306 20.3053C104.618 20.6733 103.786 20.8573 102.81 20.8573ZM113.47 20.6173V8.61732H116.422L116.614 12.2173L116.206 11.8333C116.398 11.0493 116.702 10.4093 117.118 9.91332C117.534 9.40132 118.038 9.01732 118.63 8.76132C119.238 8.50532 119.902 8.37732 120.622 8.37732C121.454 8.37732 122.19 8.53732 122.83 8.85732C123.486 9.17732 123.998 9.66532 124.366 10.3213C124.75 10.9613 124.942 11.7693 124.942 12.7453V20.6173H121.654V13.6813C121.654 12.6573 121.454 11.9533 121.054 11.5693C120.654 11.1693 120.134 10.9693 119.494 10.9693C119.046 10.9693 118.606 11.0813 118.174 11.3053C117.758 11.5133 117.414 11.8573 117.142 12.3373C116.886 12.8173 116.758 13.4573 116.758 14.2573V20.6173H113.47ZM132.866 20.8573C131.874 20.8573 130.986 20.6093 130.202 20.1133C129.434 19.6173 128.826 18.9053 128.378 17.9773C127.946 17.0493 127.73 15.9373 127.73 14.6413C127.73 13.3133 127.962 12.1853 128.426 11.2573C128.89 10.3133 129.514 9.60132 130.298 9.12132C131.098 8.62532 131.994 8.37732 132.986 8.37732C134.042 8.37732 134.914 8.68132 135.602 9.28932C136.29 9.89732 136.738 10.6813 136.946 11.6413L136.634 12.0253V3.36132H139.922V20.6173H136.97L136.754 16.9693L137.138 17.1613C137.042 17.9133 136.794 18.5693 136.394 19.1293C135.994 19.6733 135.49 20.0973 134.882 20.4013C134.274 20.7053 133.602 20.8573 132.866 20.8573ZM133.826 18.3373C134.402 18.3373 134.898 18.1933 135.314 17.9053C135.73 17.6013 136.05 17.1613 136.274 16.5853C136.514 16.0093 136.634 15.3213 136.634 14.5213C136.634 13.7533 136.522 13.1053 136.298 12.5773C136.074 12.0333 135.754 11.6173 135.338 11.3293C134.922 11.0413 134.434 10.8973 133.874 10.8973C132.978 10.8973 132.274 11.2173 131.762 11.8573C131.266 12.4813 131.018 13.4013 131.018 14.6173C131.018 15.8333 131.266 16.7613 131.762 17.4013C132.258 18.0253 132.946 18.3373 133.826 18.3373Z" fill="#D0D8FF"/>
</g>
<defs>
<clipPath id="clip0_310_2005">
<rect width="142" height="24" fill="white" transform="translate(0 0.617325)"/>
</clipPath>
</defs>
</svg>
